<svg width="157" height="28" viewBox="0 0 157 28" fill="none" xmlns="http://www.w3.org/2000/svg">
<path d="M0.582386 27V0.818181H5.32528V11.902H17.4574V0.818181H22.2131V27H17.4574V15.8778H5.32528V27H0.582386ZM35.7322 27.3835C33.8146 27.3835 32.1527 26.9616 30.7464 26.1179C29.3402 25.2741 28.2493 24.0937 27.4737 22.5767C26.7067 21.0597 26.3232 19.2869 26.3232 17.2585C26.3232 15.2301 26.7067 13.4531 27.4737 11.9276C28.2493 10.402 29.3402 9.21733 30.7464 8.37358C32.1527 7.52983 33.8146 7.10795 35.7322 7.10795C37.6499 7.10795 39.3118 7.52983 40.718 8.37358C42.1243 9.21733 43.2109 10.402 43.978 11.9276C44.7536 13.4531 45.1413 15.2301 45.1413 17.2585C45.1413 19.2869 44.7536 21.0597 43.978 22.5767C43.2109 24.0937 42.1243 25.2741 40.718 26.1179C39.3118 26.9616 37.6499 27.3835 35.7322 27.3835ZM35.7578 23.6761C36.7976 23.6761 37.6669 23.3906 38.3658 22.8196C39.0646 22.2401 39.5845 21.4645 39.9254 20.4929C40.2749 19.5213 40.4496 18.4389 40.4496 17.2457C40.4496 16.044 40.2749 14.9574 39.9254 13.9858C39.5845 13.0057 39.0646 12.2259 38.3658 11.6463C37.6669 11.0668 36.7976 10.777 35.7578 10.777C34.6925 10.777 33.8061 11.0668 33.0987 11.6463C32.3999 12.2259 31.8757 13.0057 31.5263 13.9858C31.1854 14.9574 31.0149 16.044 31.0149 17.2457C31.0149 18.4389 31.1854 19.5213 31.5263 20.4929C31.8757 21.4645 32.3999 22.2401 33.0987 22.8196C33.8061 23.3906 34.6925 23.6761 35.7578 23.6761ZM58.8746 7.36364V10.9432H47.5863V7.36364H58.8746ZM50.3732 2.65909H55.0011V21.0938C55.0011 21.7159 55.0948 22.1932 55.2823 22.5256C55.4783 22.8494 55.734 23.071 56.0494 23.1903C56.3647 23.3097 56.7141 23.3693 57.0977 23.3693C57.3874 23.3693 57.6516 23.348 57.8903 23.3054C58.1374 23.2628 58.3249 23.2244 58.4528 23.1903L59.2326 26.8082C58.9854 26.8935 58.6317 26.9872 58.1715 27.0895C57.7198 27.1918 57.1658 27.2514 56.5096 27.2685C55.3505 27.3026 54.3065 27.1278 53.3775 26.7443C52.4485 26.3523 51.7113 25.7472 51.1658 24.929C50.6289 24.1108 50.3647 23.0881 50.3732 21.8608V2.65909ZM71.2273 27.3835C69.2585 27.3835 67.5582 26.9744 66.1264 26.1562C64.7031 25.3295 63.608 24.1619 62.8409 22.6534C62.0739 21.1364 61.6903 19.3509 61.6903 17.2969C61.6903 15.277 62.0739 13.5043 62.8409 11.9787C63.6165 10.4446 64.6989 9.25142 66.0881 8.39915C67.4773 7.53835 69.1094 7.10795 70.9844 7.10795C72.1946 7.10795 73.3366 7.30398 74.4105 7.69602C75.4929 8.07954 76.4474 8.67614 77.2741 9.4858C78.1094 10.2955 78.7656 11.3267 79.2429 12.5795C79.7202 13.8239 79.9588 15.3068 79.9588 17.0284V18.4474H63.8636V15.3281H75.5227C75.5142 14.4418 75.3224 13.6534 74.9474 12.9631C74.5724 12.2642 74.0483 11.7145 73.375 11.3139C72.7102 10.9134 71.9347 10.7131 71.0483 10.7131C70.1023 10.7131 69.2713 10.9432 68.5554 11.4034C67.8395 11.8551 67.2813 12.4517 66.8807 13.1932C66.4886 13.9261 66.2884 14.7315 66.2798 15.6094V18.3324C66.2798 19.4744 66.4886 20.4545 66.9062 21.2727C67.3239 22.0824 67.9077 22.7045 68.6577 23.1392C69.4077 23.5653 70.2855 23.7784 71.2912 23.7784C71.9645 23.7784 72.5739 23.6847 73.1193 23.4972C73.6648 23.3011 74.1378 23.0156 74.5384 22.6406C74.9389 22.2656 75.2415 21.8011 75.446 21.2472L79.767 21.733C79.4943 22.875 78.9744 23.8722 78.2074 24.7244C77.4489 25.5682 76.4773 26.2244 75.2926 26.6932C74.108 27.1534 72.7528 27.3835 71.2273 27.3835ZM88.5018 0.818181V27H83.8739V0.818181H88.5018ZM93.4652 27V0.818181H98.093V10.6108H98.2848C98.5234 10.1335 98.8601 9.62642 99.2947 9.08949C99.7294 8.54403 100.317 8.07954 101.059 7.69602C101.8 7.30398 102.746 7.10795 103.897 7.10795C105.414 7.10795 106.782 7.49574 108.001 8.27131C109.228 9.03835 110.2 10.1761 110.915 11.6847C111.64 13.1847 112.002 15.0256 112.002 17.2074C112.002 19.3636 111.648 21.196 110.941 22.7045C110.234 24.2131 109.271 25.3636 108.052 26.1562C106.833 26.9489 105.452 27.3452 103.91 27.3452C102.785 27.3452 101.852 27.1577 101.11 26.7827C100.369 26.4077 99.772 25.956 99.3203 25.4276C98.8771 24.8906 98.532 24.3835 98.2848 23.9062H98.0163V27H93.4652ZM98.0036 17.1818C98.0036 18.4517 98.1825 19.5639 98.5405 20.5185C98.907 21.473 99.4311 22.2187 100.113 22.7557C100.803 23.2841 101.638 23.5483 102.619 23.5483C103.641 23.5483 104.498 23.2756 105.188 22.7301C105.879 22.1761 106.398 21.4219 106.748 20.4673C107.106 19.5043 107.285 18.4091 107.285 17.1818C107.285 15.9631 107.11 14.8807 106.761 13.9347C106.411 12.9886 105.891 12.2472 105.201 11.7102C104.511 11.1733 103.65 10.9048 102.619 10.9048C101.63 10.9048 100.79 11.1648 100.1 11.6847C99.4098 12.2045 98.8857 12.9332 98.5277 13.8707C98.1783 14.8082 98.0036 15.9119 98.0036 17.1818ZM120.564 15.4943V27H115.936V7.36364H120.36V10.7003H120.59C121.042 9.60085 121.762 8.72727 122.75 8.07955C123.748 7.43182 124.979 7.10795 126.445 7.10795C127.8 7.10795 128.98 7.39773 129.986 7.97727C131 8.55682 131.784 9.39631 132.338 10.4957C132.901 11.5952 133.178 12.929 133.169 14.4972V27H128.542V15.2131C128.542 13.9006 128.201 12.8736 127.519 12.1321C126.846 11.3906 125.912 11.0199 124.719 11.0199C123.909 11.0199 123.189 11.1989 122.559 11.5568C121.936 11.9062 121.446 12.4134 121.088 13.0781C120.739 13.7429 120.564 14.5483 120.564 15.4943ZM138.078 27V0.818181H142.706V10.6108H142.898C143.137 10.1335 143.473 9.62642 143.908 9.08949C144.343 8.54403 144.931 8.07954 145.672 7.69602C146.414 7.30398 147.36 7.10795 148.51 7.10795C150.027 7.10795 151.395 7.49574 152.614 8.27131C153.841 9.03835 154.813 10.1761 155.529 11.6847C156.253 13.1847 156.615 15.0256 156.615 17.2074C156.615 19.3636 156.262 21.196 155.554 22.7045C154.847 24.2131 153.884 25.3636 152.665 26.1562C151.446 26.9489 150.066 27.3452 148.523 27.3452C147.398 27.3452 146.465 27.1577 145.723 26.7827C144.982 26.4077 144.385 25.956 143.934 25.4276C143.49 24.8906 143.145 24.3835 142.898 23.9062H142.63V27H138.078ZM142.617 17.1818C142.617 18.4517 142.796 19.5639 143.154 20.5185C143.52 21.473 144.044 22.2187 144.726 22.7557C145.417 23.2841 146.252 23.5483 147.232 23.5483C148.255 23.5483 149.111 23.2756 149.801 22.7301C150.492 22.1761 151.012 21.4219 151.361 20.4673C151.719 19.5043 151.898 18.4091 151.898 17.1818C151.898 15.9631 151.723 14.8807 151.374 13.9347C151.025 12.9886 150.505 12.2472 149.814 11.7102C149.124 11.1733 148.263 10.9048 147.232 10.9048C146.243 10.9048 145.404 11.1648 144.713 11.6847C144.023 12.2045 143.499 12.9332 143.141 13.8707C142.792 14.8082 142.617 15.9119 142.617 17.1818Z" fill="url(#paint0_linear_3_5)"/>
<defs>
<linearGradient id="paint0_linear_3_5" x1="17" y1="-32" x2="169" y2="63.5" gradientUnits="userSpaceOnUse">
<stop stop-color="#FF0F0F"/>
<stop offset="1" stop-color="#593EFF"/>
</linearGradient>
</defs>
</svg>
