<svg width="90" height="90" viewBox="0 0 90 90" fill="none" xmlns="http://www.w3.org/2000/svg">
<path d="M66.5646 84.2656C62.8079 83.4507 59.3809 80.968 57.3065 77.1133H13.8586C10.0316 77.1133 6.92928 73.7655 6.92928 69.6357C6.92928 65.5059 10.0316 62.158 13.8586 62.158H49.3052L45.3046 54.6804H13.8586C6.20468 54.6804 0 61.3761 0 69.6357C0 77.8953 6.20468 84.591 13.8586 84.591H66.6069L66.5646 84.2656Z" fill="url(#paint0_linear_4_87)"/>
<path d="M13.8586 65.8968H51.3056L55.3062 73.3745H13.8586C11.9451 73.3745 10.3939 71.7006 10.3939 69.6357C10.3939 67.5708 11.9451 65.8968 13.8586 65.8968Z" fill="url(#paint1_linear_4_87)"/>
<path d="M56.4407 16.5574C57.6254 20.2749 57.2256 24.5357 54.9817 28.2907L76.7057 66.5728C78.6191 69.9447 77.3206 74.3521 73.8053 76.417C70.2899 78.4819 65.889 77.4223 63.9756 74.0504L46.2522 42.8183L41.8875 50.0821L57.6105 77.7892C61.4375 84.5331 70.2393 86.6521 77.2699 82.5223C84.3005 78.3925 86.8977 69.5777 83.0707 62.8339L56.6965 16.3574L56.4407 16.5574Z" fill="url(#paint2_linear_4_87)"/>
<path d="M67.1581 72.181L48.4346 39.1865L52.7993 31.9227L73.5231 68.4422C74.4799 70.1281 73.8306 72.3318 72.0729 73.3643C70.3153 74.3967 68.1148 73.8669 67.1581 72.181Z" fill="url(#paint3_linear_4_87)"/>
<path d="M4.43454 59.3955C6.95586 56.4472 10.7512 54.6007 15.0706 54.6229L36.1279 15.9572C37.9827 12.5515 42.3646 11.4132 45.9151 13.4148C49.4657 15.4163 50.8404 19.7997 48.9856 23.2054L31.8061 54.7505L40.1739 54.8143L55.4145 26.8295C59.124 20.0181 56.3745 11.2513 49.2734 7.2482C42.1723 3.24513 33.4086 5.52173 29.6991 12.3331L4.13425 59.2755L4.43454 59.3955Z" fill="url(#paint4_linear_4_87)"/>
<path d="M45.7712 21.3934L27.6222 54.7186L19.2545 54.6548L39.3424 17.7693C40.2697 16.0664 42.4607 15.4973 44.2359 16.4981C46.0112 17.4988 46.6986 19.6905 45.7712 21.3934Z" fill="url(#paint5_linear_4_87)"/>
<defs>
<linearGradient id="paint0_linear_4_87" x1="0" y1="69.6357" x2="66.6069" y2="69.6357" gradientUnits="userSpaceOnUse">
<stop stop-color="#FF3E45"/>
<stop offset="1" stop-color="#593EFF"/>
</linearGradient>
<linearGradient id="paint1_linear_4_87" x1="0" y1="69.6357" x2="66.6069" y2="69.6357" gradientUnits="userSpaceOnUse">
<stop stop-color="#FF3E45"/>
<stop offset="1" stop-color="#593EFF"/>
</linearGradient>
<linearGradient id="paint2_linear_4_87" x1="77.2699" y1="82.5223" x2="43.097" y2="24.3458" gradientUnits="userSpaceOnUse">
<stop stop-color="#FF3E45"/>
<stop offset="1" stop-color="#593EFF"/>
</linearGradient>
<linearGradient id="paint3_linear_4_87" x1="77.2699" y1="82.5223" x2="43.097" y2="24.3458" gradientUnits="userSpaceOnUse">
<stop stop-color="#FF3E45"/>
<stop offset="1" stop-color="#593EFF"/>
</linearGradient>
<linearGradient id="paint4_linear_4_87" x1="49.2734" y1="7.2482" x2="16.1317" y2="66.0387" gradientUnits="userSpaceOnUse">
<stop stop-color="#FF3E45"/>
<stop offset="1" stop-color="#593EFF"/>
</linearGradient>
<linearGradient id="paint5_linear_4_87" x1="49.2734" y1="7.2482" x2="16.1317" y2="66.0387" gradientUnits="userSpaceOnUse">
<stop stop-color="#FF3E45"/>
<stop offset="1" stop-color="#593EFF"/>
</linearGradient>
</defs>
</svg>
